<mxfile host="app.diagrams.net" modified="2023-11-22T08:39:42.382Z" agent="Mozilla/5.0 (Windows NT 10.0; Win64; x64) AppleWebKit/537.36 (KHTML, like Gecko) Chrome/116.0.0.0 Safari/537.36" version="22.1.3" etag="UZMRaKxQeW1MN5PtnI35" type="github">
  <diagram name="第 1 页" id="g4lPhL9X7rk2Ipl8Err7">
    <mxGraphModel>
      <root>
        <mxCell id="0" />
        <mxCell id="1" parent="0" />
      </root>
    </mxGraphModel>
  </diagram>
</mxfile>
